<?xml version="1.0" standalone="no"?>
<!DOCTYPE svg PUBLIC "-//W3C//DTD SVG 1.1//EN" "http://www.w3.org/Graphics/SVG/1.1/DTD/svg11.dtd">

<svg xmlns="http://www.w3.org/2000/svg" version="1.1" width="430" height="360">
    <circle cx="215" cy="180" r="172" stroke="#777" stroke-width="8" fill="white" />
    
    <path d="M210,270c-40.65,61.789-148.78,38.211-148.78,38.211c-70.731-21.139-57.724-66.667-57.724-66.667  c30.081-45.528,56.911-10.569,56.911-10.569c4.879,9.756-4.879,9.756-4.879,9.756c-30.082-14.634-24.39,8.943-24.39,8.943  c25.203,38.211,86.991-17.073,86.991-17.073c60.162-41.463,93.173,7.784,93.173,7.784l3.627-2.906c0,0,30.082-46.341,90.244-4.878  c0,0,61.787,55.285,86.99,17.073c0,0,5.693-23.577-24.389-8.943c0,0-9.758,0-4.879-9.756c0,0,26.83-34.958,56.91,10.569  c0,0,13.008,45.528-57.723,66.667c0,0-108.131,23.578-148.781-38.211" style="fill:#333;"/>
</svg>
